<mxfile host="app.diagrams.net" modified="2023-04-20T21:30:42.188Z" agent="Mozilla/5.0 (Windows NT 10.0; Win64; x64) AppleWebKit/537.36 (KHTML, like Gecko) Chrome/112.0.0.0 Safari/537.36" etag="lVBe4stQb616f3JKy2d8" version="21.1.5" type="google">
  <diagram name="Page-1" id="edf60f1a-56cd-e834-aa8a-f176f3a09ee4">
    <mxGraphModel grid="1" page="1" gridSize="10" guides="1" tooltips="1" connect="1" arrows="1" fold="1" pageScale="1" pageWidth="1100" pageHeight="850" background="none" math="0" shadow="0">
      <root>
        <mxCell id="0" />
        <mxCell id="1" parent="0" />
        <mxCell id="bCk6k48XRtau1MmFYHnN-3" value="" style="edgeStyle=orthogonalEdgeStyle;rounded=0;orthogonalLoop=1;jettySize=auto;html=1;" edge="1" parent="1" source="bCk6k48XRtau1MmFYHnN-1" target="bCk6k48XRtau1MmFYHnN-2">
          <mxGeometry relative="1" as="geometry" />
        </mxCell>
        <mxCell id="bCk6k48XRtau1MmFYHnN-25" style="edgeStyle=orthogonalEdgeStyle;rounded=0;orthogonalLoop=1;jettySize=auto;html=1;" edge="1" parent="1" source="bCk6k48XRtau1MmFYHnN-1" target="bCk6k48XRtau1MmFYHnN-24">
          <mxGeometry relative="1" as="geometry" />
        </mxCell>
        <mxCell id="bCk6k48XRtau1MmFYHnN-26" style="edgeStyle=orthogonalEdgeStyle;rounded=0;orthogonalLoop=1;jettySize=auto;html=1;entryX=0.5;entryY=0;entryDx=0;entryDy=0;" edge="1" parent="1" source="bCk6k48XRtau1MmFYHnN-1" target="bCk6k48XRtau1MmFYHnN-8">
          <mxGeometry relative="1" as="geometry" />
        </mxCell>
        <mxCell id="NMrz33U4wGTr29OWBn1y-1" style="edgeStyle=orthogonalEdgeStyle;rounded=0;orthogonalLoop=1;jettySize=auto;html=1;entryX=0.4;entryY=-0.003;entryDx=0;entryDy=0;entryPerimeter=0;exitX=0.5;exitY=0;exitDx=0;exitDy=0;" edge="1" parent="1" source="bCk6k48XRtau1MmFYHnN-1" target="NMrz33U4wGTr29OWBn1y-2">
          <mxGeometry relative="1" as="geometry">
            <mxPoint x="50" y="410" as="targetPoint" />
            <mxPoint x="490" y="180" as="sourcePoint" />
          </mxGeometry>
        </mxCell>
        <mxCell id="bCk6k48XRtau1MmFYHnN-1" value="Inicio" style="rounded=1;whiteSpace=wrap;html=1;arcSize=50;" vertex="1" parent="1">
          <mxGeometry x="410" y="30" width="170" height="60" as="geometry" />
        </mxCell>
        <mxCell id="bCk6k48XRtau1MmFYHnN-5" value="" style="edgeStyle=orthogonalEdgeStyle;rounded=0;orthogonalLoop=1;jettySize=auto;html=1;" edge="1" parent="1" source="bCk6k48XRtau1MmFYHnN-2" target="bCk6k48XRtau1MmFYHnN-4">
          <mxGeometry relative="1" as="geometry" />
        </mxCell>
        <mxCell id="bCk6k48XRtau1MmFYHnN-2" value="long tempo,&lt;br&gt;int estado=1" style="rounded=0;whiteSpace=wrap;html=1;" vertex="1" parent="1">
          <mxGeometry x="435" y="110" width="120" height="60" as="geometry" />
        </mxCell>
        <mxCell id="bCk6k48XRtau1MmFYHnN-7" value="" style="edgeStyle=orthogonalEdgeStyle;rounded=0;orthogonalLoop=1;jettySize=auto;html=1;" edge="1" parent="1" source="bCk6k48XRtau1MmFYHnN-4" target="bCk6k48XRtau1MmFYHnN-6">
          <mxGeometry relative="1" as="geometry" />
        </mxCell>
        <mxCell id="NMrz33U4wGTr29OWBn1y-36" value="" style="edgeStyle=orthogonalEdgeStyle;rounded=0;orthogonalLoop=1;jettySize=auto;html=1;" edge="1" parent="1" source="bCk6k48XRtau1MmFYHnN-4" target="bCk6k48XRtau1MmFYHnN-2">
          <mxGeometry relative="1" as="geometry" />
        </mxCell>
        <mxCell id="bCk6k48XRtau1MmFYHnN-4" value="void setup()" style="rounded=0;whiteSpace=wrap;html=1;" vertex="1" parent="1">
          <mxGeometry x="435" y="200" width="120" height="60" as="geometry" />
        </mxCell>
        <mxCell id="bCk6k48XRtau1MmFYHnN-10" style="edgeStyle=orthogonalEdgeStyle;rounded=0;orthogonalLoop=1;jettySize=auto;html=1;entryX=1;entryY=0.5;entryDx=0;entryDy=0;" edge="1" parent="1" source="bCk6k48XRtau1MmFYHnN-6" target="bCk6k48XRtau1MmFYHnN-8">
          <mxGeometry relative="1" as="geometry" />
        </mxCell>
        <mxCell id="bCk6k48XRtau1MmFYHnN-14" value="" style="edgeStyle=orthogonalEdgeStyle;rounded=0;orthogonalLoop=1;jettySize=auto;html=1;" edge="1" parent="1" source="bCk6k48XRtau1MmFYHnN-6" target="bCk6k48XRtau1MmFYHnN-13">
          <mxGeometry relative="1" as="geometry" />
        </mxCell>
        <mxCell id="bCk6k48XRtau1MmFYHnN-6" value="&lt;br&gt;pinMode(2,OUTPUT);&lt;br&gt;&amp;nbsp; pinMode(3,OUTPUT);&lt;br&gt;&amp;nbsp; pinMode(4, OUTPUT);&lt;br&gt;&amp;nbsp; pinMode(5, OUTPUT);&lt;br&gt;&amp;nbsp; pinMode(7, OUTPUT);&lt;br&gt;&amp;nbsp; pinMode(9, OUTPUT);&amp;nbsp;&amp;nbsp;&lt;br&gt;&amp;nbsp; pinMode(10, INPUT);&amp;nbsp;&lt;br&gt;&amp;nbsp; pinMode(13, OUTPUT);&lt;br&gt;&lt;div&gt;&amp;nbsp; Serial.begin(9600);&lt;/div&gt;&lt;div&gt;&lt;br&gt;&lt;/div&gt;" style="rounded=0;whiteSpace=wrap;html=1;" vertex="1" parent="1">
          <mxGeometry x="365" y="285" width="260" height="130" as="geometry" />
        </mxCell>
        <mxCell id="bCk6k48XRtau1MmFYHnN-12" value="" style="edgeStyle=orthogonalEdgeStyle;rounded=0;orthogonalLoop=1;jettySize=auto;html=1;" edge="1" parent="1" source="bCk6k48XRtau1MmFYHnN-8" target="bCk6k48XRtau1MmFYHnN-11">
          <mxGeometry relative="1" as="geometry" />
        </mxCell>
        <mxCell id="bCk6k48XRtau1MmFYHnN-8" value="Inicial()" style="rounded=0;whiteSpace=wrap;html=1;" vertex="1" parent="1">
          <mxGeometry x="120" y="160" width="120" height="60" as="geometry" />
        </mxCell>
        <mxCell id="bCk6k48XRtau1MmFYHnN-11" value="digitalWrite(2, HIGH);&lt;br&gt;&amp;nbsp; digitalWrite(3, LOW);&lt;br&gt;&amp;nbsp; digitalWrite(5, LOW);&lt;br&gt;&amp;nbsp; digitalWrite(4, LOW);&lt;br&gt;&amp;nbsp; digitalWrite(7, HIGH);&amp;nbsp;&lt;br&gt;&amp;nbsp; digitalWrite(13, LOW);" style="shape=parallelogram;perimeter=parallelogramPerimeter;whiteSpace=wrap;html=1;fixedSize=1;rounded=0;" vertex="1" parent="1">
          <mxGeometry x="75" y="300" width="210" height="90" as="geometry" />
        </mxCell>
        <mxCell id="bCk6k48XRtau1MmFYHnN-16" value="" style="edgeStyle=orthogonalEdgeStyle;rounded=0;orthogonalLoop=1;jettySize=auto;html=1;" edge="1" parent="1" source="bCk6k48XRtau1MmFYHnN-13" target="bCk6k48XRtau1MmFYHnN-15">
          <mxGeometry relative="1" as="geometry" />
        </mxCell>
        <mxCell id="bCk6k48XRtau1MmFYHnN-13" value="void loop()" style="rounded=0;whiteSpace=wrap;html=1;" vertex="1" parent="1">
          <mxGeometry x="435" y="440" width="120" height="60" as="geometry" />
        </mxCell>
        <mxCell id="bCk6k48XRtau1MmFYHnN-44" style="edgeStyle=orthogonalEdgeStyle;rounded=0;orthogonalLoop=1;jettySize=auto;html=1;entryX=0;entryY=0.5;entryDx=0;entryDy=0;" edge="1" parent="1" source="bCk6k48XRtau1MmFYHnN-15" target="bCk6k48XRtau1MmFYHnN-19">
          <mxGeometry relative="1" as="geometry" />
        </mxCell>
        <mxCell id="bCk6k48XRtau1MmFYHnN-45" style="edgeStyle=orthogonalEdgeStyle;rounded=0;orthogonalLoop=1;jettySize=auto;html=1;entryX=0;entryY=0.5;entryDx=0;entryDy=0;" edge="1" parent="1" source="bCk6k48XRtau1MmFYHnN-15" target="bCk6k48XRtau1MmFYHnN-43">
          <mxGeometry relative="1" as="geometry">
            <mxPoint x="495" y="720" as="targetPoint" />
            <Array as="points">
              <mxPoint x="540" y="660" />
            </Array>
          </mxGeometry>
        </mxCell>
        <mxCell id="bCk6k48XRtau1MmFYHnN-15" value="switch(estado)" style="rhombus;whiteSpace=wrap;html=1;" vertex="1" parent="1">
          <mxGeometry x="447.5" y="530" width="95" height="80" as="geometry" />
        </mxCell>
        <mxCell id="bCk6k48XRtau1MmFYHnN-21" value="" style="edgeStyle=orthogonalEdgeStyle;rounded=0;orthogonalLoop=1;jettySize=auto;html=1;" edge="1" parent="1" source="bCk6k48XRtau1MmFYHnN-19" target="bCk6k48XRtau1MmFYHnN-20">
          <mxGeometry relative="1" as="geometry" />
        </mxCell>
        <mxCell id="bCk6k48XRtau1MmFYHnN-19" value="if(sensor() &amp;lt; 30)" style="rhombus;whiteSpace=wrap;html=1;" vertex="1" parent="1">
          <mxGeometry x="615" y="516.25" width="120" height="107.5" as="geometry" />
        </mxCell>
        <mxCell id="bCk6k48XRtau1MmFYHnN-51" style="edgeStyle=orthogonalEdgeStyle;rounded=0;orthogonalLoop=1;jettySize=auto;html=1;exitX=1;exitY=0.5;exitDx=0;exitDy=0;entryX=0;entryY=0.5;entryDx=0;entryDy=0;" edge="1" parent="1" source="bCk6k48XRtau1MmFYHnN-20" target="bCk6k48XRtau1MmFYHnN-13">
          <mxGeometry relative="1" as="geometry">
            <mxPoint x="400" y="470" as="targetPoint" />
            <Array as="points">
              <mxPoint x="1020" y="571" />
              <mxPoint x="1020" y="750" />
              <mxPoint x="400" y="750" />
              <mxPoint x="400" y="470" />
            </Array>
          </mxGeometry>
        </mxCell>
        <mxCell id="bCk6k48XRtau1MmFYHnN-20" value="tempo=millis();&#xa;    Serial.println(estado);&#xa;    estado=2;&#xa;    Serial.println(estado);" style="whiteSpace=wrap;html=1;" vertex="1" parent="1">
          <mxGeometry x="790" y="536.25" width="180" height="70" as="geometry" />
        </mxCell>
        <mxCell id="bCk6k48XRtau1MmFYHnN-22" value="case 1" style="text;html=1;strokeColor=none;fillColor=none;align=center;verticalAlign=middle;whiteSpace=wrap;rounded=0;" vertex="1" parent="1">
          <mxGeometry x="540" y="540" width="60" height="30" as="geometry" />
        </mxCell>
        <mxCell id="bCk6k48XRtau1MmFYHnN-23" value="sim" style="text;html=1;strokeColor=none;fillColor=none;align=center;verticalAlign=middle;whiteSpace=wrap;rounded=0;" vertex="1" parent="1">
          <mxGeometry x="720" y="540" width="60" height="30" as="geometry" />
        </mxCell>
        <mxCell id="bCk6k48XRtau1MmFYHnN-28" value="" style="edgeStyle=orthogonalEdgeStyle;rounded=0;orthogonalLoop=1;jettySize=auto;html=1;" edge="1" parent="1" source="bCk6k48XRtau1MmFYHnN-24" target="bCk6k48XRtau1MmFYHnN-27">
          <mxGeometry relative="1" as="geometry" />
        </mxCell>
        <mxCell id="bCk6k48XRtau1MmFYHnN-24" value="int sensor()" style="rounded=0;whiteSpace=wrap;html=1;" vertex="1" parent="1">
          <mxGeometry x="700" y="30" width="120" height="60" as="geometry" />
        </mxCell>
        <mxCell id="bCk6k48XRtau1MmFYHnN-30" value="" style="edgeStyle=orthogonalEdgeStyle;rounded=0;orthogonalLoop=1;jettySize=auto;html=1;" edge="1" parent="1" source="bCk6k48XRtau1MmFYHnN-27" target="bCk6k48XRtau1MmFYHnN-29">
          <mxGeometry relative="1" as="geometry" />
        </mxCell>
        <mxCell id="bCk6k48XRtau1MmFYHnN-27" value="digitalWrite(9, LOW)" style="shape=parallelogram;perimeter=parallelogramPerimeter;whiteSpace=wrap;html=1;fixedSize=1;" vertex="1" parent="1">
          <mxGeometry x="685" y="130" width="150" height="50" as="geometry" />
        </mxCell>
        <mxCell id="bCk6k48XRtau1MmFYHnN-32" value="" style="edgeStyle=orthogonalEdgeStyle;rounded=0;orthogonalLoop=1;jettySize=auto;html=1;" edge="1" parent="1" source="bCk6k48XRtau1MmFYHnN-29" target="bCk6k48XRtau1MmFYHnN-31">
          <mxGeometry relative="1" as="geometry" />
        </mxCell>
        <mxCell id="bCk6k48XRtau1MmFYHnN-29" value="delayMicroseconds(2)" style="whiteSpace=wrap;html=1;" vertex="1" parent="1">
          <mxGeometry x="915" y="130" width="130" height="50" as="geometry" />
        </mxCell>
        <mxCell id="bCk6k48XRtau1MmFYHnN-36" value="" style="edgeStyle=orthogonalEdgeStyle;rounded=0;orthogonalLoop=1;jettySize=auto;html=1;" edge="1" parent="1" source="bCk6k48XRtau1MmFYHnN-31" target="bCk6k48XRtau1MmFYHnN-33">
          <mxGeometry relative="1" as="geometry" />
        </mxCell>
        <mxCell id="bCk6k48XRtau1MmFYHnN-31" value="digitalWrite(9, HIGH)" style="shape=parallelogram;perimeter=parallelogramPerimeter;whiteSpace=wrap;html=1;fixedSize=1;" vertex="1" parent="1">
          <mxGeometry x="910" y="210" width="140" height="50" as="geometry" />
        </mxCell>
        <mxCell id="bCk6k48XRtau1MmFYHnN-37" value="" style="edgeStyle=orthogonalEdgeStyle;rounded=0;orthogonalLoop=1;jettySize=auto;html=1;" edge="1" parent="1" source="bCk6k48XRtau1MmFYHnN-33" target="bCk6k48XRtau1MmFYHnN-34">
          <mxGeometry relative="1" as="geometry" />
        </mxCell>
        <mxCell id="bCk6k48XRtau1MmFYHnN-33" value="delayMicroseconds(10)" style="whiteSpace=wrap;html=1;" vertex="1" parent="1">
          <mxGeometry x="710" y="210" width="130" height="50" as="geometry" />
        </mxCell>
        <mxCell id="bCk6k48XRtau1MmFYHnN-39" value="" style="edgeStyle=orthogonalEdgeStyle;rounded=0;orthogonalLoop=1;jettySize=auto;html=1;" edge="1" parent="1" source="bCk6k48XRtau1MmFYHnN-34" target="bCk6k48XRtau1MmFYHnN-38">
          <mxGeometry relative="1" as="geometry" />
        </mxCell>
        <mxCell id="bCk6k48XRtau1MmFYHnN-34" value="digitalWrite(9, LOW)" style="shape=parallelogram;perimeter=parallelogramPerimeter;whiteSpace=wrap;html=1;fixedSize=1;" vertex="1" parent="1">
          <mxGeometry x="705" y="290" width="140" height="50" as="geometry" />
        </mxCell>
        <mxCell id="bCk6k48XRtau1MmFYHnN-41" style="edgeStyle=orthogonalEdgeStyle;rounded=0;orthogonalLoop=1;jettySize=auto;html=1;entryX=1;entryY=0.5;entryDx=0;entryDy=0;" edge="1" parent="1" source="bCk6k48XRtau1MmFYHnN-38" target="bCk6k48XRtau1MmFYHnN-40">
          <mxGeometry relative="1" as="geometry">
            <mxPoint x="980" y="440" as="targetPoint" />
            <Array as="points">
              <mxPoint x="980" y="400" />
            </Array>
          </mxGeometry>
        </mxCell>
        <mxCell id="bCk6k48XRtau1MmFYHnN-38" value="&lt;div&gt;float duration = pulseIn(10, HIGH)&lt;/div&gt;&lt;div&gt;float distance = duration * 0.034 / 2;&lt;/div&gt;" style="whiteSpace=wrap;html=1;" vertex="1" parent="1">
          <mxGeometry x="880" y="285" width="200" height="60" as="geometry" />
        </mxCell>
        <mxCell id="bCk6k48XRtau1MmFYHnN-42" style="edgeStyle=orthogonalEdgeStyle;rounded=0;orthogonalLoop=1;jettySize=auto;html=1;entryX=0.5;entryY=0;entryDx=0;entryDy=0;" edge="1" parent="1" source="bCk6k48XRtau1MmFYHnN-40" target="bCk6k48XRtau1MmFYHnN-19">
          <mxGeometry relative="1" as="geometry" />
        </mxCell>
        <mxCell id="bCk6k48XRtau1MmFYHnN-40" value="&lt;div&gt;Serial.println(distance);&lt;/div&gt;&lt;div&gt;&amp;nbsp; &amp;nbsp; return distance;&lt;/div&gt;" style="shape=parallelogram;perimeter=parallelogramPerimeter;whiteSpace=wrap;html=1;fixedSize=1;" vertex="1" parent="1">
          <mxGeometry x="685" y="370" width="160" height="60" as="geometry" />
        </mxCell>
        <mxCell id="bCk6k48XRtau1MmFYHnN-50" style="edgeStyle=orthogonalEdgeStyle;rounded=0;orthogonalLoop=1;jettySize=auto;html=1;" edge="1" parent="1" source="bCk6k48XRtau1MmFYHnN-43">
          <mxGeometry relative="1" as="geometry">
            <mxPoint x="1020" y="660" as="targetPoint" />
          </mxGeometry>
        </mxCell>
        <mxCell id="NMrz33U4wGTr29OWBn1y-31" style="edgeStyle=orthogonalEdgeStyle;rounded=0;orthogonalLoop=1;jettySize=auto;html=1;exitX=0;exitY=0;exitDx=0;exitDy=0;entryX=1;entryY=0.5;entryDx=0;entryDy=0;" edge="1" parent="1" source="bCk6k48XRtau1MmFYHnN-43" target="NMrz33U4wGTr29OWBn1y-2">
          <mxGeometry relative="1" as="geometry">
            <Array as="points">
              <mxPoint x="600" y="430" />
              <mxPoint x="140" y="430" />
            </Array>
          </mxGeometry>
        </mxCell>
        <mxCell id="bCk6k48XRtau1MmFYHnN-43" value="estado = carros(tempo);&amp;nbsp;" style="whiteSpace=wrap;html=1;" vertex="1" parent="1">
          <mxGeometry x="600" y="640" width="150" height="40" as="geometry" />
        </mxCell>
        <mxCell id="bCk6k48XRtau1MmFYHnN-48" style="edgeStyle=orthogonalEdgeStyle;rounded=0;orthogonalLoop=1;jettySize=auto;html=1;exitX=0;exitY=1;exitDx=0;exitDy=0;entryX=0;entryY=0.5;entryDx=0;entryDy=0;" edge="1" parent="1" source="bCk6k48XRtau1MmFYHnN-46" target="bCk6k48XRtau1MmFYHnN-47">
          <mxGeometry relative="1" as="geometry" />
        </mxCell>
        <mxCell id="bCk6k48XRtau1MmFYHnN-46" value="case 2" style="text;html=1;strokeColor=none;fillColor=none;align=center;verticalAlign=middle;whiteSpace=wrap;rounded=0;" vertex="1" parent="1">
          <mxGeometry x="540" y="625" width="60" height="30" as="geometry" />
        </mxCell>
        <mxCell id="bCk6k48XRtau1MmFYHnN-52" style="edgeStyle=orthogonalEdgeStyle;rounded=0;orthogonalLoop=1;jettySize=auto;html=1;" edge="1" parent="1" source="bCk6k48XRtau1MmFYHnN-47">
          <mxGeometry relative="1" as="geometry">
            <mxPoint x="1020" y="710" as="targetPoint" />
          </mxGeometry>
        </mxCell>
        <mxCell id="NMrz33U4wGTr29OWBn1y-32" style="edgeStyle=orthogonalEdgeStyle;rounded=0;orthogonalLoop=1;jettySize=auto;html=1;entryX=1;entryY=0.5;entryDx=0;entryDy=0;" edge="1" parent="1" source="bCk6k48XRtau1MmFYHnN-47" target="NMrz33U4wGTr29OWBn1y-19">
          <mxGeometry relative="1" as="geometry">
            <Array as="points">
              <mxPoint x="675" y="790" />
              <mxPoint x="330" y="790" />
              <mxPoint x="330" y="1010" />
            </Array>
          </mxGeometry>
        </mxCell>
        <mxCell id="bCk6k48XRtau1MmFYHnN-47" value="&amp;nbsp;estado = peoes(tempo);&amp;nbsp;" style="whiteSpace=wrap;html=1;" vertex="1" parent="1">
          <mxGeometry x="600" y="690" width="150" height="40" as="geometry" />
        </mxCell>
        <mxCell id="bCk6k48XRtau1MmFYHnN-53" style="edgeStyle=orthogonalEdgeStyle;rounded=0;orthogonalLoop=1;jettySize=auto;html=1;exitX=0;exitY=1;exitDx=0;exitDy=0;" edge="1" parent="1" source="bCk6k48XRtau1MmFYHnN-49">
          <mxGeometry relative="1" as="geometry">
            <mxPoint x="540" y="750" as="targetPoint" />
          </mxGeometry>
        </mxCell>
        <mxCell id="bCk6k48XRtau1MmFYHnN-49" value="case 3" style="text;html=1;strokeColor=none;fillColor=none;align=center;verticalAlign=middle;whiteSpace=wrap;rounded=0;" vertex="1" parent="1">
          <mxGeometry x="540" y="680" width="60" height="30" as="geometry" />
        </mxCell>
        <mxCell id="NMrz33U4wGTr29OWBn1y-4" value="" style="edgeStyle=orthogonalEdgeStyle;rounded=0;orthogonalLoop=1;jettySize=auto;html=1;" edge="1" parent="1" source="NMrz33U4wGTr29OWBn1y-2" target="NMrz33U4wGTr29OWBn1y-3">
          <mxGeometry relative="1" as="geometry" />
        </mxCell>
        <mxCell id="NMrz33U4wGTr29OWBn1y-2" value="int carros(tempo)" style="rounded=0;whiteSpace=wrap;html=1;" vertex="1" parent="1">
          <mxGeometry x="10" y="400" width="120" height="60" as="geometry" />
        </mxCell>
        <mxCell id="NMrz33U4wGTr29OWBn1y-6" value="" style="edgeStyle=orthogonalEdgeStyle;rounded=0;orthogonalLoop=1;jettySize=auto;html=1;" edge="1" parent="1" source="NMrz33U4wGTr29OWBn1y-3" target="NMrz33U4wGTr29OWBn1y-5">
          <mxGeometry relative="1" as="geometry" />
        </mxCell>
        <mxCell id="NMrz33U4wGTr29OWBn1y-13" value="" style="edgeStyle=orthogonalEdgeStyle;rounded=0;orthogonalLoop=1;jettySize=auto;html=1;" edge="1" parent="1" source="NMrz33U4wGTr29OWBn1y-3" target="NMrz33U4wGTr29OWBn1y-12">
          <mxGeometry relative="1" as="geometry" />
        </mxCell>
        <mxCell id="NMrz33U4wGTr29OWBn1y-3" value="&lt;font style=&quot;font-size: 11px;&quot;&gt;if((millis()-tempo)&amp;gt;= 2000 &amp;amp;&amp;amp; digitalRead(7)==HIGH)&lt;/font&gt;" style="rhombus;whiteSpace=wrap;html=1;" vertex="1" parent="1">
          <mxGeometry y="500" width="170.5" height="160" as="geometry" />
        </mxCell>
        <mxCell id="NMrz33U4wGTr29OWBn1y-5" value="digitalWrite(5, HIGH)&lt;br&gt;digitalWrite(7, LOW)" style="shape=parallelogram;perimeter=parallelogramPerimeter;whiteSpace=wrap;html=1;fixedSize=1;" vertex="1" parent="1">
          <mxGeometry x="200" y="550" width="140" height="60" as="geometry" />
        </mxCell>
        <mxCell id="NMrz33U4wGTr29OWBn1y-52" style="edgeStyle=orthogonalEdgeStyle;rounded=0;orthogonalLoop=1;jettySize=auto;html=1;entryX=0;entryY=1;entryDx=0;entryDy=0;" edge="1" parent="1" source="NMrz33U4wGTr29OWBn1y-7" target="bCk6k48XRtau1MmFYHnN-47">
          <mxGeometry relative="1" as="geometry">
            <Array as="points">
              <mxPoint x="475" y="700" />
              <mxPoint x="475" y="730" />
            </Array>
          </mxGeometry>
        </mxCell>
        <mxCell id="NMrz33U4wGTr29OWBn1y-7" value="digitalWrite(5, LOW)&lt;br&gt;digitalWrite(4, HIGH);&lt;br&gt;return 3" style="shape=parallelogram;perimeter=parallelogramPerimeter;whiteSpace=wrap;html=1;fixedSize=1;" vertex="1" parent="1">
          <mxGeometry x="210" y="670" width="140" height="60" as="geometry" />
        </mxCell>
        <mxCell id="NMrz33U4wGTr29OWBn1y-8" value="sim" style="text;html=1;strokeColor=none;fillColor=none;align=center;verticalAlign=middle;whiteSpace=wrap;rounded=0;" vertex="1" parent="1">
          <mxGeometry x="160" y="550" width="60" height="30" as="geometry" />
        </mxCell>
        <mxCell id="NMrz33U4wGTr29OWBn1y-15" value="" style="edgeStyle=orthogonalEdgeStyle;rounded=0;orthogonalLoop=1;jettySize=auto;html=1;" edge="1" parent="1" source="NMrz33U4wGTr29OWBn1y-12" target="NMrz33U4wGTr29OWBn1y-7">
          <mxGeometry relative="1" as="geometry" />
        </mxCell>
        <mxCell id="NMrz33U4wGTr29OWBn1y-12" value="if((millis()-tempo)&amp;gt;= 4000 &lt;br&gt;&amp;amp;&amp;amp; digitalRead(5)==HIGH)" style="rhombus;whiteSpace=wrap;html=1;" vertex="1" parent="1">
          <mxGeometry y="690" width="172.63" height="160" as="geometry" />
        </mxCell>
        <mxCell id="NMrz33U4wGTr29OWBn1y-14" value="Não" style="text;html=1;strokeColor=none;fillColor=none;align=center;verticalAlign=middle;whiteSpace=wrap;rounded=0;" vertex="1" parent="1">
          <mxGeometry x="90" y="655" width="60" height="30" as="geometry" />
        </mxCell>
        <mxCell id="NMrz33U4wGTr29OWBn1y-16" value="sim" style="text;html=1;strokeColor=none;fillColor=none;align=center;verticalAlign=middle;whiteSpace=wrap;rounded=0;" vertex="1" parent="1">
          <mxGeometry x="190" y="750" width="60" height="30" as="geometry" />
        </mxCell>
        <mxCell id="NMrz33U4wGTr29OWBn1y-23" value="" style="edgeStyle=orthogonalEdgeStyle;rounded=0;orthogonalLoop=1;jettySize=auto;html=1;" edge="1" parent="1" source="NMrz33U4wGTr29OWBn1y-18" target="NMrz33U4wGTr29OWBn1y-19">
          <mxGeometry relative="1" as="geometry" />
        </mxCell>
        <mxCell id="NMrz33U4wGTr29OWBn1y-39" style="edgeStyle=orthogonalEdgeStyle;rounded=0;orthogonalLoop=1;jettySize=auto;html=1;entryX=0;entryY=0.5;entryDx=0;entryDy=0;" edge="1" parent="1" source="NMrz33U4wGTr29OWBn1y-18" target="NMrz33U4wGTr29OWBn1y-35">
          <mxGeometry relative="1" as="geometry">
            <Array as="points">
              <mxPoint x="60" y="900" />
              <mxPoint x="60" y="1310" />
            </Array>
          </mxGeometry>
        </mxCell>
        <mxCell id="NMrz33U4wGTr29OWBn1y-18" value="Inicio" style="rounded=1;whiteSpace=wrap;html=1;arcSize=50;" vertex="1" parent="1">
          <mxGeometry x="105" y="870" width="170" height="60" as="geometry" />
        </mxCell>
        <mxCell id="NMrz33U4wGTr29OWBn1y-24" value="" style="edgeStyle=orthogonalEdgeStyle;rounded=0;orthogonalLoop=1;jettySize=auto;html=1;" edge="1" parent="1" source="NMrz33U4wGTr29OWBn1y-19" target="NMrz33U4wGTr29OWBn1y-21">
          <mxGeometry relative="1" as="geometry" />
        </mxCell>
        <mxCell id="NMrz33U4wGTr29OWBn1y-19" value="int peoes(tempo)" style="rounded=0;whiteSpace=wrap;html=1;" vertex="1" parent="1">
          <mxGeometry x="130" y="980" width="120" height="60" as="geometry" />
        </mxCell>
        <mxCell id="NMrz33U4wGTr29OWBn1y-26" value="" style="edgeStyle=orthogonalEdgeStyle;rounded=0;orthogonalLoop=1;jettySize=auto;html=1;" edge="1" parent="1" source="NMrz33U4wGTr29OWBn1y-21" target="NMrz33U4wGTr29OWBn1y-25">
          <mxGeometry relative="1" as="geometry" />
        </mxCell>
        <mxCell id="NMrz33U4wGTr29OWBn1y-29" value="" style="edgeStyle=orthogonalEdgeStyle;rounded=0;orthogonalLoop=1;jettySize=auto;html=1;entryX=0;entryY=0.5;entryDx=0;entryDy=0;" edge="1" parent="1" source="NMrz33U4wGTr29OWBn1y-21" target="NMrz33U4wGTr29OWBn1y-28">
          <mxGeometry relative="1" as="geometry">
            <Array as="points">
              <mxPoint x="328" y="1120" />
              <mxPoint x="328" y="1050" />
            </Array>
          </mxGeometry>
        </mxCell>
        <mxCell id="NMrz33U4wGTr29OWBn1y-21" value="&lt;font style=&quot;font-size: 11px;&quot;&gt;if((millis()-tempo)&amp;gt;= 6000 &amp;amp;&amp;amp; digitalRead(4)==HIGH)&lt;/font&gt;" style="rhombus;whiteSpace=wrap;html=1;" vertex="1" parent="1">
          <mxGeometry x="105" y="1070" width="170.5" height="160" as="geometry" />
        </mxCell>
        <mxCell id="NMrz33U4wGTr29OWBn1y-51" style="edgeStyle=orthogonalEdgeStyle;rounded=0;orthogonalLoop=1;jettySize=auto;html=1;entryX=1;entryY=0.5;entryDx=0;entryDy=0;" edge="1" parent="1" source="NMrz33U4wGTr29OWBn1y-25" target="NMrz33U4wGTr29OWBn1y-35">
          <mxGeometry relative="1" as="geometry">
            <Array as="points">
              <mxPoint x="430" y="1310" />
            </Array>
          </mxGeometry>
        </mxCell>
        <mxCell id="NMrz33U4wGTr29OWBn1y-25" value="led_intermitente();" style="whiteSpace=wrap;html=1;" vertex="1" parent="1">
          <mxGeometry x="370" y="1170" width="120" height="60" as="geometry" />
        </mxCell>
        <mxCell id="NMrz33U4wGTr29OWBn1y-27" value="sim" style="text;html=1;strokeColor=none;fillColor=none;align=center;verticalAlign=middle;whiteSpace=wrap;rounded=0;" vertex="1" parent="1">
          <mxGeometry x="260" y="1180" width="60" height="30" as="geometry" />
        </mxCell>
        <mxCell id="NMrz33U4wGTr29OWBn1y-34" value="" style="edgeStyle=orthogonalEdgeStyle;rounded=0;orthogonalLoop=1;jettySize=auto;html=1;" edge="1" parent="1" source="NMrz33U4wGTr29OWBn1y-28" target="NMrz33U4wGTr29OWBn1y-33">
          <mxGeometry relative="1" as="geometry" />
        </mxCell>
        <mxCell id="NMrz33U4wGTr29OWBn1y-28" value="(millis()-tempo)&amp;gt;= 16000 &amp;amp;&amp;amp; digitalRead(4)==HIGH" style="rhombus;whiteSpace=wrap;html=1;" vertex="1" parent="1">
          <mxGeometry x="390.75" y="970" width="199.25" height="160" as="geometry" />
        </mxCell>
        <mxCell id="NMrz33U4wGTr29OWBn1y-30" value="Nao" style="text;html=1;strokeColor=none;fillColor=none;align=center;verticalAlign=middle;whiteSpace=wrap;rounded=0;" vertex="1" parent="1">
          <mxGeometry x="260" y="1090" width="60" height="30" as="geometry" />
        </mxCell>
        <mxCell id="NMrz33U4wGTr29OWBn1y-33" value="inicial()&lt;br&gt;return 1;" style="shape=parallelogram;perimeter=parallelogramPerimeter;whiteSpace=wrap;html=1;fixedSize=1;" vertex="1" parent="1">
          <mxGeometry x="670" y="1020" width="140" height="60" as="geometry" />
        </mxCell>
        <mxCell id="NMrz33U4wGTr29OWBn1y-38" value="" style="edgeStyle=orthogonalEdgeStyle;rounded=0;orthogonalLoop=1;jettySize=auto;html=1;" edge="1" parent="1" source="NMrz33U4wGTr29OWBn1y-35" target="NMrz33U4wGTr29OWBn1y-37">
          <mxGeometry relative="1" as="geometry" />
        </mxCell>
        <mxCell id="NMrz33U4wGTr29OWBn1y-35" value="void led_ntermitente();" style="rounded=0;whiteSpace=wrap;html=1;" vertex="1" parent="1">
          <mxGeometry x="80" y="1280" width="120" height="60" as="geometry" />
        </mxCell>
        <mxCell id="NMrz33U4wGTr29OWBn1y-41" value="" style="edgeStyle=orthogonalEdgeStyle;rounded=0;orthogonalLoop=1;jettySize=auto;html=1;" edge="1" parent="1" source="NMrz33U4wGTr29OWBn1y-37" target="NMrz33U4wGTr29OWBn1y-40">
          <mxGeometry relative="1" as="geometry" />
        </mxCell>
        <mxCell id="NMrz33U4wGTr29OWBn1y-37" value="long millisTarefa1 = millis()&lt;br&gt;&lt;div style=&quot;text-align: left;&quot;&gt;&lt;span style=&quot;background-color: initial;&quot;&gt;int sensorValue = analogRead(A0)&lt;/span&gt;&lt;/div&gt;" style="rounded=0;whiteSpace=wrap;html=1;" vertex="1" parent="1">
          <mxGeometry x="40" y="1390" width="200" height="50" as="geometry" />
        </mxCell>
        <mxCell id="NMrz33U4wGTr29OWBn1y-43" value="" style="edgeStyle=orthogonalEdgeStyle;rounded=0;orthogonalLoop=1;jettySize=auto;html=1;" edge="1" parent="1" source="NMrz33U4wGTr29OWBn1y-40" target="NMrz33U4wGTr29OWBn1y-42">
          <mxGeometry relative="1" as="geometry" />
        </mxCell>
        <mxCell id="NMrz33U4wGTr29OWBn1y-49" value="" style="edgeStyle=orthogonalEdgeStyle;rounded=0;orthogonalLoop=1;jettySize=auto;html=1;" edge="1" parent="1" source="NMrz33U4wGTr29OWBn1y-40" target="NMrz33U4wGTr29OWBn1y-48">
          <mxGeometry relative="1" as="geometry" />
        </mxCell>
        <mxCell id="NMrz33U4wGTr29OWBn1y-40" value="sensorValue &gt;= 800" style="rhombus;whiteSpace=wrap;html=1;rounded=0;" vertex="1" parent="1">
          <mxGeometry x="382.5" y="1347.5" width="160" height="135" as="geometry" />
        </mxCell>
        <mxCell id="NMrz33U4wGTr29OWBn1y-46" value="" style="edgeStyle=orthogonalEdgeStyle;rounded=0;orthogonalLoop=1;jettySize=auto;html=1;" edge="1" parent="1" source="NMrz33U4wGTr29OWBn1y-42" target="NMrz33U4wGTr29OWBn1y-45">
          <mxGeometry relative="1" as="geometry" />
        </mxCell>
        <mxCell id="NMrz33U4wGTr29OWBn1y-42" value="(millis() - millisTarefa1) &amp;lt; 6500)" style="rhombus;whiteSpace=wrap;html=1;rounded=0;" vertex="1" parent="1">
          <mxGeometry x="620" y="1338.75" width="190" height="152.5" as="geometry" />
        </mxCell>
        <mxCell id="NMrz33U4wGTr29OWBn1y-44" value="sim" style="text;html=1;strokeColor=none;fillColor=none;align=center;verticalAlign=middle;whiteSpace=wrap;rounded=0;" vertex="1" parent="1">
          <mxGeometry x="550" y="1390" width="60" height="30" as="geometry" />
        </mxCell>
        <mxCell id="NMrz33U4wGTr29OWBn1y-45" value="digitalWrite(13, !digitalRead(13)" style="shape=parallelogram;perimeter=parallelogramPerimeter;whiteSpace=wrap;html=1;fixedSize=1;" vertex="1" parent="1">
          <mxGeometry x="612.5" y="1530" width="205" height="60" as="geometry" />
        </mxCell>
        <mxCell id="NMrz33U4wGTr29OWBn1y-47" value="sim" style="text;html=1;strokeColor=none;fillColor=none;align=center;verticalAlign=middle;whiteSpace=wrap;rounded=0;" vertex="1" parent="1">
          <mxGeometry x="720" y="1491.25" width="60" height="30" as="geometry" />
        </mxCell>
        <mxCell id="NMrz33U4wGTr29OWBn1y-48" value="digitalWrite(13,LOW);" style="shape=parallelogram;perimeter=parallelogramPerimeter;whiteSpace=wrap;html=1;fixedSize=1;" vertex="1" parent="1">
          <mxGeometry x="372.5" y="1550" width="180" height="50" as="geometry" />
        </mxCell>
        <mxCell id="NMrz33U4wGTr29OWBn1y-50" value="Nao" style="text;html=1;strokeColor=none;fillColor=none;align=center;verticalAlign=middle;whiteSpace=wrap;rounded=0;" vertex="1" parent="1">
          <mxGeometry x="465" y="1491.25" width="60" height="30" as="geometry" />
        </mxCell>
      </root>
    </mxGraphModel>
  </diagram>
</mxfile>
